<svg xmlns="http://www.w3.org/2000/svg" width="56" height="56" viewBox="0 0 56 56" fill="none"><rect opacity="0.5" width="56" height="56" rx="4" fill="#C2E0EC"></rect><path d="M28.2298 38.73H12.5298C11.9994 38.73 11.4906 38.5193 11.1156 38.1442C10.7405 37.7691 10.5298 37.2604 10.5298 36.73V15.73C10.5298 15.1995 10.7405 14.6908 11.1156 14.3158C11.4906 13.9407 11.9994 13.73 12.5298 13.73H39.5298C40.0602 13.73 40.5689 13.9407 40.944 14.3158C41.3191 14.6908 41.5298 15.1995 41.5298 15.73V24.33" stroke="#606F85" stroke-linecap="round" stroke-linejoin="round"></path><path d="M11 14.3198L24.5 25.6498C24.9203 26.0272 25.4652 26.2359 26.03 26.2359C26.5948 26.2359 27.1397 26.0272 27.56 25.6498L41 14.3198" stroke="#606F85" stroke-miterlimit="10"></path><path d="M39.9702 46.23C45.4931 46.23 49.9702 41.7528 49.9702 36.23C49.9702 30.7071 45.4931 26.23 39.9702 26.23C34.4474 26.23 29.9702 30.7071 29.9702 36.23C29.9702 41.7528 34.4474 46.23 39.9702 46.23Z" fill="#88BCCF"></path><path d="M34.5 36.5L38 40L45.5 32.5" stroke="white" stroke-linecap="round" stroke-linejoin="round"></path></svg>