<svg xmlns="http://www.w3.org/2000/svg" width="56" height="56" viewBox="0 0 56 56" fill="none"><rect opacity="0.5" width="56" height="56" rx="4" fill="#C2E0EC"></rect><path d="M17.6772 40.4037L17.6772 40.4036C18.951 39.2819 20.6163 38.7085 22.311 38.808L22.3256 38.8088H22.3403H34.5638H34.5785L34.5931 38.808C36.2876 38.7085 37.9529 39.2818 39.2269 40.4037C40.4967 41.5218 41.2752 43.0945 41.3948 44.7818V47.5001H15.5093V44.7818C15.6288 43.0945 16.4074 41.5218 17.6772 40.4037Z" fill="#88BCCF" fill-opacity="0.5" stroke="#606F85"></path><path d="M34.9537 25.4131C34.9537 29.298 31.8043 32.4473 27.9195 32.4473C24.0346 32.4473 20.8853 29.298 20.8853 25.4131C20.8853 21.5281 24.0346 18.3789 27.9195 18.3789C31.8043 18.3789 34.9537 21.5281 34.9537 25.4131Z" fill="#88BCCF" fill-opacity="0.5" stroke="#606F85"></path><path d="M40.8311 27.0231V21.8492C40.8938 20.0918 40.6095 18.3393 39.9944 16.6918C39.3793 15.0445 38.4453 13.5345 37.2463 12.2482C36.0472 10.962 34.6062 9.92475 33.0059 9.1958C31.4056 8.46686 29.6774 8.06051 27.9198 8C26.1624 8.06051 24.4341 8.46686 22.8338 9.1958C21.2334 9.92475 19.7926 10.962 18.5935 12.2482C17.3943 13.5345 16.4605 15.0445 15.8454 16.6918C15.2303 18.3393 14.9458 20.0918 15.0085 21.8492V27.0231" stroke="#606F85" stroke-miterlimit="10"></path><path d="M37.0011 23.2246H40.8464V27.6326C40.8464 28.4617 40.517 29.2568 39.9308 29.8431C39.3445 30.4295 38.5494 30.7588 37.7201 30.7588H35.438V24.7877C35.438 24.3732 35.6027 23.9755 35.8958 23.6824C36.1891 23.3894 36.5866 23.2246 37.0011 23.2246Z" stroke="#606F85" stroke-miterlimit="10"></path><path d="M15.0093 23.2246H18.8233C19.2378 23.2246 19.6353 23.3894 19.9285 23.6824C20.2216 23.9755 20.3864 24.3732 20.3864 24.7877V30.7588H18.1355C17.3063 30.7588 16.5111 30.4295 15.9249 29.8431C15.3386 29.2568 15.0093 28.4617 15.0093 27.6326V23.2246Z" stroke="#606F85" stroke-miterlimit="10"></path></svg>